# xmcd
# 
# Track frame offsets:
#     150
#     16422
#     42014
#     64192
#     90570
#     117658
#     134389
#     160972
#     187189
#     204636
#     220436
#     236336
#     268978
#     287754
#     307982
#     327802
# 
# Disc length: 4713
# 
# Revision: 1
# Processed by: cddbd v1.5.2PL0 Copyright (c) Steve Scherf et al.
# Submitted via: fre:ac v1.0.31
# 
DISCID=f2126710
DTITLE=Gary Moore - Memorial Collection
DYEAR=2011
DGENRE=Heavy Metal
TTITLE0=Summer Breeze (Dr.Strangely Strange)
TTITLE1=Still In Love With You (Thin Lizzy)
TTITLE2=Put It This Way (Colosseum II)
TTITLE3=Rivers (Colosseum II)
TTITLE4=Desperado (Colosseum II)
TTITLE5=Put It That Way (Colosseum II)
TTITLE6=Fighting Talk (Colosseum II)
TTITLE7=The Inquisition (Colosseum II)
TTITLE8=Do Anything You Want To (Thin Lizzy)
TTITLE9=Wating For An Alibi (Thin Lizzy)
TTITLE10=Sarah (Thin Lizzy)
TTITLE11=You (G-Force)
TTITLE12=Killer (Cozy Powell)
TTITLE13=Sunset (Cozy Powell)
TTITLE14=The Blister (Cozy Powell)
TTITLE15=Dartmoore (Cozy Powell)
EXTD=
EXTT0=
EXTT1=
EXTT2=
EXTT3=
EXTT4=
EXTT5=
EXTT6=
EXTT7=
EXTT8=
EXTT9=
EXTT10=
EXTT11=
EXTT12=
EXTT13=
EXTT14=
EXTT15=
PLAYORDER=
